<?xml version="1.0" standalone="no"?>
<!DOCTYPE svg PUBLIC "-//W3C//DTD SVG 20010904//EN"
 "http://www.w3.org/TR/2001/REC-SVG-20010904/DTD/svg10.dtd">
<svg version="1.0" xmlns="http://www.w3.org/2000/svg"
 width="2362.000000pt" height="2362.000000pt" viewBox="0 0 2362.000000 2362.000000"
 preserveAspectRatio="xMidYMid meet">

<g transform="translate(0.000000,2362.000000) scale(0.100000,-0.100000)"
fill="#000000" stroke="none">
<path d="M12330 20715 c-1537 -349 -2828 -641 -2867 -650 l-73 -16 0 -635 0
-636 28 6 c33 7 5706 916 5716 916 3 0 6 371 6 825 0 454 -3 825 -7 824 -5 0
-1266 -286 -2803 -634z"/>
<path d="M16590 20526 c0 -454 3 -826 6 -826 10 0 5687 -910 5712 -915 l22 -5
0 634 c0 596 -1 635 -17 640 -10 3 -1294 294 -2853 646 -1559 353 -2843 643
-2852 646 -17 5 -18 -39 -18 -820z"/>
<path d="M12258 18542 l-2868 -377 0 -632 0 -633 53 1 c28 0 1321 84 2872 187
l2820 187 3 823 c1 452 -1 822 -5 821 -5 -1 -1298 -170 -2875 -377z"/>
<path d="M16592 18097 l3 -822 2820 -187 c1551 -103 2841 -187 2868 -187 l47
-1 0 635 c0 568 -2 635 -16 635 -17 0 -5654 737 -5697 744 l-27 6 2 -823z"/>
<path d="M12285 16334 c-1567 -89 -2860 -163 -2872 -163 l-23 -1 0 -605 0
-605 2875 0 2875 0 0 770 c0 424 -1 769 -2 769 -2 -1 -1285 -75 -2853 -165z"/>
<path d="M16590 15728 l0 -768 2870 0 2870 0 0 604 0 604 -82 7 c-46 3 -1316
75 -2823 160 -1507 85 -2761 156 -2788 157 l-47 3 0 -767z"/>
<path d="M3875 13653 c-496 -20 -959 -104 -1301 -238 -309 -120 -536 -265
-724 -461 -322 -335 -502 -752 -587 -1354 -22 -159 -26 -784 -5 -950 99 -798
443 -1341 1037 -1638 231 -115 532 -205 860 -257 305 -48 293 -47 1765 -55
1371 -7 1443 -9 1625 -41 166 -29 315 -81 398 -137 143 -100 256 -277 302
-476 26 -112 37 -302 26 -428 -41 -442 -264 -686 -710 -779 -234 -49 -209 -49
-2678 -49 l-2313 0 0 -745 0 -746 2513 4 c1764 3 2543 7 2617 15 588 63 943
153 1285 325 762 383 1120 1127 1092 2267 -20 787 -216 1352 -591 1708 -276
260 -721 434 -1296 506 -304 38 -345 39 -1830 45 -1347 7 -1483 9 -1564 25
-400 78 -626 267 -713 594 -24 89 -26 114 -26 292 -1 164 3 211 22 299 82 382
307 617 687 716 244 63 68 59 2612 62 l2312 3 0 750 0 750 -2372 -2 c-1305 -1
-2404 -3 -2443 -5z"/>
<path d="M9456 13638 c3 -13 611 -1859 1351 -4103 739 -2244 1355 -4115 1369
-4158 l26 -77 1056 2 1056 3 633 2555 c348 1405 694 2804 769 3108 75 304 139
550 143 547 3 -4 402 -1402 886 -3108 l880 -3102 1062 -3 1061 -2 31 97 c159
515 2531 8253 2531 8257 0 3 -402 6 -894 6 l-893 0 -15 -52 c-8 -29 -408
-1472 -888 -3205 -481 -1734 -877 -3149 -881 -3145 -5 5 -1569 5415 -1835
6350 l-15 52 -1027 -2 -1026 -3 -805 -3202 c-443 -1762 -808 -3199 -812 -3195
-4 4 -429 1425 -944 3157 -516 1733 -944 3171 -952 3198 l-14 47 -930 0 -930
0 7 -22z"/>
<path d="M1630 4451 c-130 -46 -186 -187 -122 -312 40 -80 92 -113 188 -117
95 -5 148 14 202 72 55 59 71 130 48 208 -38 131 -179 197 -316 149z"/>
<path d="M5495 4255 c-66 -118 -121 -219 -123 -225 -2 -6 50 -10 147 -10 l151
0 180 225 180 225 -207 0 -208 -1 -120 -214z"/>
<path d="M9847 4456 c-58 -16 -94 -41 -125 -86 -81 -120 -35 -281 97 -336 48
-20 157 -18 206 5 133 61 173 218 85 339 -51 71 -166 105 -263 78z"/>
<path d="M3001 3845 c-86 -24 -151 -64 -228 -141 -82 -83 -76 -86 -88 54 l-7
72 -191 0 -190 0 7 -92 c3 -50 6 -378 6 -730 l0 -638 220 0 220 0 0 463 c1
496 1 500 54 575 43 62 89 86 170 90 81 3 115 -12 159 -70 54 -72 57 -101 57
-600 l0 -458 220 0 219 0 3 478 3 477 27 50 c47 89 106 125 203 125 66 0 100
-16 143 -64 63 -72 65 -92 70 -603 l3 -463 215 0 215 0 -4 528 c-3 469 -5 534
-21 587 -74 250 -229 375 -464 375 -162 0 -267 -44 -387 -162 -44 -43 -81 -78
-82 -78 -1 0 -14 20 -28 44 -37 63 -106 123 -183 159 -59 28 -77 31 -177 34
-76 2 -127 -2 -164 -12z"/>
<path d="M5380 3845 c-239 -54 -411 -186 -506 -390 -58 -125 -69 -181 -68
-365 0 -160 1 -168 32 -259 42 -122 90 -200 172 -281 79 -78 152 -123 262
-161 216 -73 453 -59 653 40 236 117 373 337 391 630 24 370 -169 665 -501
771 -91 29 -334 38 -435 15z m297 -326 c111 -53 173 -203 173 -419 0 -133 -15
-205 -62 -293 -98 -184 -338 -194 -449 -19 -107 169 -102 495 11 651 75 102
210 135 327 80z"/>
<path d="M8595 3846 c-272 -62 -465 -261 -537 -554 -17 -68 -21 -116 -21 -217
1 -152 22 -245 80 -364 52 -105 169 -222 273 -273 131 -64 203 -80 396 -85
193 -6 318 9 465 53 l85 26 -30 152 -29 151 -91 -23 c-114 -29 -343 -41 -438
-22 -139 27 -244 104 -272 201 -9 29 -16 56 -16 61 0 4 211 8 469 8 439 0 470
1 475 18 13 47 17 178 6 267 -35 297 -177 499 -411 582 -63 23 -93 27 -209 30
-88 1 -156 -2 -195 -11z m265 -306 c76 -39 140 -149 140 -243 l0 -27 -271 0
-271 0 7 38 c16 91 83 194 147 228 72 38 179 39 248 4z"/>
<path d="M10885 3845 c-184 -40 -307 -129 -378 -274 -27 -56 -32 -77 -35 -160
-5 -123 17 -186 91 -268 83 -90 152 -129 376 -214 47 -18 99 -46 118 -63 29
-27 35 -38 35 -76 1 -25 -4 -56 -11 -69 -46 -85 -301 -80 -498 9 -36 17 -70
27 -74 23 -4 -5 -21 -69 -38 -143 -18 -74 -34 -142 -37 -151 -6 -23 94 -62
224 -89 125 -25 336 -27 450 -5 161 33 315 134 371 243 57 111 64 250 20 367
-17 46 -38 76 -88 125 -75 74 -138 110 -296 169 -123 47 -190 83 -205 111 -17
32 -12 95 10 123 11 14 37 31 57 38 83 27 270 2 372 -51 l38 -19 36 144 c21
78 37 149 37 157 0 18 -103 55 -206 73 -98 18 -289 18 -369 0z"/>
<path d="M1490 3100 l0 -730 225 0 225 0 0 730 0 730 -225 0 -225 0 0 -730z"/>
<path d="M6430 3823 c0 -5 118 -333 262 -730 l263 -723 224 3 225 2 268 720
c147 396 268 723 268 728 0 4 -105 7 -233 7 l-233 0 -107 -387 c-59 -214 -119
-445 -134 -515 -14 -71 -30 -128 -34 -128 -4 0 -13 26 -19 58 -23 114 -71 293
-169 627 l-99 340 -241 3 c-132 1 -241 -1 -241 -5z"/>
<path d="M9690 3100 l0 -730 225 0 225 0 0 730 0 730 -225 0 -225 0 0 -730z"/>
</g>
</svg>
