<?xml version="1.0" encoding="UTF-8" standalone="no"?>
<!DOCTYPE svg PUBLIC "-//W3C//DTD SVG 1.1//EN" "http://www.w3.org/Graphics/SVG/1.1/DTD/svg11.dtd">
<svg width="100%" height="100%" viewBox="0 0 800 800" version="1.1" xmlns="http://www.w3.org/2000/svg" xmlns:xlink="http://www.w3.org/1999/xlink" xml:space="preserve" xmlns:serif="http://www.serif.com/" style="fill-rule:evenodd;clip-rule:evenodd;stroke-linecap:round;stroke-linejoin:round;stroke-miterlimit:1.5;">
    <g transform="matrix(1,0,0,1,-20.3304,20.8241)">
        <g transform="matrix(5.3781,0,0,5.3781,-4605.97,-2694.34)">
            <g>
                <g id="Simbolo">
                    <path d="M885.713,524.942L885.713,564.207L945.436,564.207L945.436,512.13L885.713,524.942Z" style="fill:rgb(15,53,87);"/>
                    <path d="M983.047,564.207L983.047,533.622" style="fill:none;stroke:rgb(15,53,87);stroke-width:0.93px;"/>
                    <path d="M977.261,564.207L977.261,531.349" style="fill:none;stroke:rgb(15,53,87);stroke-width:0.93px;"/>
                    <path d="M971.268,564.207L971.268,528.662" style="fill:none;stroke:rgb(15,53,87);stroke-width:0.93px;"/>
                    <path d="M965.275,564.207L965.275,525.769" style="fill:none;stroke:rgb(15,53,87);stroke-width:0.93px;"/>
                    <path d="M958.662,564.207L958.662,522.669" style="fill:none;stroke:rgb(15,53,87);stroke-width:0.93px;"/>
                    <path d="M951.842,564.207L951.842,519.156" style="fill:none;stroke:rgb(15,53,87);stroke-width:0.93px;"/>
                    <path id="Base" d="M873.727,564.207L995.447,564.207" style="fill:none;stroke:rgb(15,53,87);stroke-width:0.93px;"/>
                </g>
            </g>
        </g>
        <g transform="matrix(1,0,0,1,26.9369,10.7853)">
            <g transform="matrix(10.1322,0,0,2.53817,-7545.36,-1916.58)">
                <path d="M771.751,939.15C771.645,939.859 771.532,940.391 771.414,940.745C771.295,941.1 771.141,941.277 770.952,941.277C770.75,941.277 770.517,940.875 770.25,940.072C769.984,939.268 769.646,938.382 769.238,937.413C768.829,936.443 768.338,935.557 767.763,934.753C767.189,933.95 766.493,933.548 765.676,933.548C764.906,933.548 764.225,933.962 763.633,934.789C763.041,935.616 762.547,936.739 762.15,938.157C761.753,939.575 761.454,941.242 761.253,943.156C761.052,945.071 760.951,947.139 760.951,949.361C760.951,952.197 761.126,954.549 761.475,956.416C761.824,958.283 762.286,959.879 762.861,961.203C763.435,962.526 764.086,963.673 764.815,964.642C765.543,965.611 766.289,966.615 767.053,967.655C767.817,968.695 768.563,969.865 769.291,971.165C770.019,972.465 770.67,974.108 771.245,976.093C771.819,978.079 772.281,980.513 772.63,983.397C772.98,986.281 773.154,989.826 773.154,994.033C773.154,998.477 772.965,1002.65 772.586,1006.55C772.207,1010.45 771.653,1013.84 770.925,1016.72C770.197,1019.61 769.303,1021.88 768.243,1023.53C767.183,1025.19 765.978,1026.01 764.628,1026.01C762.982,1026.01 761.481,1024.82 760.125,1022.43C758.769,1020.05 757.612,1016.82 756.652,1012.75L757.647,1006.23C757.742,1005.71 757.857,1005.27 757.994,1004.92C758.13,1004.56 758.281,1004.39 758.446,1004.39C758.695,1004.39 758.979,1004.92 759.299,1005.98C759.619,1007.05 760.019,1008.22 760.498,1009.49C760.978,1010.77 761.558,1011.94 762.239,1013C762.92,1014.07 763.752,1014.6 764.735,1014.6C765.552,1014.6 766.28,1014.15 766.92,1013.25C767.559,1012.35 768.101,1011.09 768.545,1009.46C768.989,1007.83 769.329,1005.88 769.566,1003.61C769.803,1001.34 769.921,998.808 769.921,996.019C769.921,992.946 769.747,990.429 769.397,988.467C769.048,986.505 768.589,984.863 768.021,983.539C767.452,982.215 766.804,981.093 766.076,980.171C765.347,979.249 764.601,978.303 763.838,977.334C763.074,976.365 762.328,975.243 761.599,973.966C760.871,972.69 760.223,971.035 759.654,969.003C759.086,966.97 758.627,964.429 758.278,961.38C757.928,958.331 757.754,954.561 757.754,950.07C757.754,946.477 757.928,943.003 758.278,939.646C758.627,936.29 759.133,933.312 759.796,930.712C760.46,928.112 761.28,926.032 762.257,924.472C763.234,922.912 764.356,922.132 765.623,922.132C767.044,922.132 768.341,923.03 769.513,924.826C770.685,926.623 771.71,929.223 772.586,932.626L771.751,939.15Z" style="fill:rgb(49,53,57);fill-rule:nonzero;"/>
            </g>
            <g transform="matrix(10.1322,0,0,2.53817,-7545.36,-1916.58)">
                <path d="M774.7,923.266L777.56,923.266C777.868,923.266 778.122,923.573 778.323,924.188C778.525,924.803 778.661,925.583 778.732,926.528L783.99,997.153C784.085,998.43 784.171,999.801 784.247,1001.27C784.324,1002.73 784.398,1004.27 784.47,1005.88C784.552,1004.27 784.635,1002.72 784.718,1001.23C784.801,999.742 784.896,998.383 785.002,997.153L790.989,926.528C791.06,925.724 791.199,924.98 791.406,924.294C791.613,923.609 791.865,923.266 792.161,923.266L793.156,923.266C793.464,923.266 793.715,923.573 793.911,924.188C794.106,924.803 794.245,925.583 794.328,926.528L800.279,997.153C800.492,999.612 800.681,1002.42 800.847,1005.59C800.918,1004.03 800.983,1002.54 801.043,1001.12C801.102,999.706 801.179,998.383 801.273,997.153L806.549,926.528C806.608,925.677 806.742,924.921 806.949,924.259C807.156,923.597 807.408,923.266 807.704,923.266L810.386,923.266L802.446,1024.88L799.355,1024.88L792.907,947.375C792.777,945.91 792.658,944.208 792.552,942.27C792.493,943.215 792.436,944.125 792.383,945C792.33,945.874 792.273,946.666 792.214,947.375L785.731,1024.88L782.64,1024.88L774.7,923.266Z" style="fill:rgb(49,53,57);fill-rule:nonzero;"/>
            </g>
        </g>
    </g>
</svg>
